<svg width="10" height="10" viewBox="0 0 10 10" fill="none" xmlns="http://www.w3.org/2000/svg">
<path d="M8.95834 0H6.31541C5.81457 0 5.34375 0.195 4.98957 0.54916L0.35541 5.18334C0.12625 5.4125 0 5.71709 0 6.0425C0 6.36625 0.12625 6.67084 0.35541 6.9L3.1 9.64459C3.32916 9.87375 3.63375 10 3.95916 10C4.28291 10 4.5875 9.87375 4.81666 9.64459L9.45082 5.01043C9.805 4.65625 10 4.18541 10 3.68459V1.04166C10 0.4675 9.5325 0 8.95834 0ZM9.58334 3.68459C9.58334 4.07418 9.43168 4.44043 9.15668 4.71543L4.52209 9.35C4.2225 9.64959 3.69709 9.65166 3.395 9.35L0.65 6.605C0.49959 6.455 0.41666 6.255 0.41666 6.04084C0.41666 5.82834 0.49957 5.62834 0.65 5.47793L5.28416 0.84375C5.56 0.56834 5.92582 0.41666 6.31541 0.41666H8.95832C9.30291 0.41666 9.58332 0.69707 9.58332 1.04166V3.68459H9.58334Z" fill="black"/>
<path d="M7.70835 1.25C7.13419 1.25 6.66669 1.7175 6.66669 2.29166C6.66669 2.86582 7.13419 3.33332 7.70835 3.33332C8.28251 3.33332 8.75001 2.86584 8.75001 2.29166C8.75001 1.7175 8.28251 1.25 7.70835 1.25ZM7.70835 2.91666C7.36376 2.91666 7.08335 2.63625 7.08335 2.29166C7.08335 1.94707 7.36376 1.66666 7.70835 1.66666C8.05294 1.66666 8.33335 1.94707 8.33335 2.29166C8.33335 2.63625 8.05292 2.91666 7.70835 2.91666Z" fill="black"/>
</svg>
