<svg width="21" height="21" viewBox="0 0 21 21" fill="none" xmlns="http://www.w3.org/2000/svg">
<circle cx="10.5" cy="10.5" r="10.5" fill="white"/>
<path d="M10.5 14.4118C10.3769 14.4118 10.2582 14.3664 10.1657 14.284C9.81641 13.9734 9.47963 13.6815 9.18249 13.424L9.18097 13.4227C8.30981 12.6677 7.55754 12.0157 7.03412 11.3735C6.44901 10.6555 6.17648 9.97469 6.17648 9.23099C6.17648 8.50843 6.42012 7.84182 6.86246 7.35388C7.31008 6.86016 7.92427 6.58824 8.59211 6.58824C9.09125 6.58824 9.54837 6.74872 9.95073 7.06519C10.1538 7.22493 10.3379 7.42043 10.5 7.64847C10.6622 7.42043 10.8462 7.22493 11.0494 7.06519C11.4517 6.74872 11.9088 6.58824 12.408 6.58824C13.0758 6.58824 13.69 6.86016 14.1376 7.35388C14.58 7.84182 14.8235 8.50843 14.8235 9.23099C14.8235 9.97469 14.5511 10.6555 13.966 11.3734C13.4426 12.0157 12.6903 12.6676 11.8193 13.4225C11.5217 13.6804 11.1843 13.9728 10.8342 14.2842C10.7418 14.3664 10.623 14.4118 10.5 14.4118ZM8.59211 7.10336C8.06743 7.10336 7.58544 7.31631 7.2348 7.70301C6.87895 8.09556 6.68295 8.63818 6.68295 9.23099C6.68295 9.85648 6.91154 10.4159 7.42408 11.0448C7.91946 11.6527 8.6563 12.2912 9.50945 13.0307L9.51103 13.032C9.80929 13.2905 10.1474 13.5835 10.4993 13.8965C10.8533 13.5829 11.1919 13.2894 11.4908 13.0305C12.3439 12.2911 13.0806 11.6527 13.576 11.0448C14.0885 10.4159 14.3171 9.85648 14.3171 9.23099C14.3171 8.63818 14.1211 8.09556 13.7652 7.70301C13.4146 7.31631 12.9326 7.10336 12.408 7.10336C12.0236 7.10336 11.6707 7.22761 11.3592 7.47263C11.0815 7.69107 10.8881 7.96721 10.7747 8.16043C10.7163 8.2598 10.6137 8.3191 10.5 8.3191C10.3863 8.3191 10.2837 8.2598 10.2254 8.16043C10.112 7.96721 9.9186 7.69107 9.64086 7.47263C9.32928 7.22761 8.97639 7.10336 8.59211 7.10336Z" fill="black"/>
</svg>
