<svg width="21" height="21" viewBox="0 0 21 21" fill="none" xmlns="http://www.w3.org/2000/svg">
<circle cx="10.5" cy="10.5" r="10.5" fill="#E81818"/>
<path d="M10.5 14.4118C10.3769 14.4118 10.2582 14.3664 10.1657 14.284C9.8164 13.9734 9.47961 13.6815 9.18247 13.424L9.18096 13.4226C8.3098 12.6677 7.55752 12.0157 7.0341 11.3734C6.449 10.6554 6.17647 9.97467 6.17647 9.23098C6.17647 8.50842 6.4201 7.84181 6.86244 7.35386C7.31006 6.86014 7.92426 6.58823 8.59209 6.58823C9.09123 6.58823 9.54835 6.74871 9.95072 7.06517C10.1538 7.22491 10.3378 7.42041 10.5 7.64845C10.6622 7.42041 10.8462 7.22491 11.0493 7.06517C11.4517 6.74871 11.9088 6.58823 12.408 6.58823C13.0757 6.58823 13.69 6.86014 14.1376 7.35386C14.58 7.84181 14.8235 8.50842 14.8235 9.23098C14.8235 9.97467 14.5511 10.6554 13.966 11.3734C13.4425 12.0157 12.6903 12.6676 11.8193 13.4225C11.5216 13.6804 11.1843 13.9728 10.8342 14.2841C10.7418 14.3664 10.623 14.4118 10.5 14.4118V14.4118ZM8.59209 7.10335C8.06742 7.10335 7.58543 7.31629 7.23479 7.703C6.87894 8.09554 6.68293 8.63817 6.68293 9.23098C6.68293 9.85646 6.91153 10.4159 7.42406 11.0448C7.91944 11.6527 8.65628 12.2912 9.50943 13.0306L9.51101 13.032C9.80927 13.2905 10.1474 13.5835 10.4993 13.8964C10.8533 13.5829 11.1919 13.2894 11.4908 13.0305C12.3438 12.2911 13.0806 11.6527 13.576 11.0448C14.0885 10.4159 14.3171 9.85646 14.3171 9.23098C14.3171 8.63817 14.1211 8.09554 13.7652 7.703C13.4146 7.31629 12.9326 7.10335 12.408 7.10335C12.0236 7.10335 11.6707 7.2276 11.3591 7.47261C11.0815 7.69106 10.888 7.9672 10.7746 8.16042C10.7163 8.25978 10.6137 8.31909 10.5 8.31909C10.3863 8.31909 10.2837 8.25978 10.2254 8.16042C10.112 7.9672 9.91859 7.69106 9.64085 7.47261C9.32926 7.2276 8.97638 7.10335 8.59209 7.10335V7.10335Z" fill="white"/>
</svg>
