<svg width="11" height="11" viewBox="0 0 11 11" fill="none" xmlns="http://www.w3.org/2000/svg">
<path d="M10.9713 4.15677C10.8993 3.92434 10.7017 3.75926 10.468 3.73728L7.29311 3.43646L6.03767 0.370181C5.9451 0.145463 5.73428 0 5.50004 0C5.26581 0 5.05499 0.145463 4.96242 0.370707L3.70698 3.43646L0.531582 3.73728C0.298269 3.75979 0.101213 3.92434 0.028785 4.15677C-0.0436426 4.38919 0.0232459 4.64413 0.199741 4.80483L2.59959 7.00104L1.89193 10.2539C1.84015 10.493 1.92911 10.7403 2.11928 10.8837C2.2215 10.9608 2.3411 11 2.4617 11C2.56568 11 2.66882 10.9707 2.76139 10.9129L5.50004 9.20497L8.23769 10.9129C8.43802 11.0387 8.69055 11.0272 8.8803 10.8837C9.07056 10.7398 9.15944 10.4925 9.10766 10.2539L8.4 7.00104L10.7998 4.80526C10.9763 4.64413 11.0437 4.38963 10.9713 4.15677Z" fill="#FFC107"/>
</svg>
